<?xml version="1.0" encoding="utf-8"?>
<!-- Generator: Adobe Illustrator 26.0.3, SVG Export Plug-In . SVG Version: 6.00 Build 0)  -->
<svg version="1.1" id="Livello_1" xmlns="http://www.w3.org/2000/svg" xmlns:xlink="http://www.w3.org/1999/xlink" x="0px" y="0px"
	 viewBox="0 0 220 183.1" style="enable-background:new 0 0 220 183.1;" xml:space="preserve">
<style type="text/css">
	.st0{fill:#C8DAEA;}
	.st1{fill:#A9C6D8;}
	.st2{fill:#FFFFFF;}
</style>
<path class="st0" d="M52.4,106.8L76,172.1c0,0,3,6.1,6.1,6.1s50.2-48.9,50.2-48.9l52.3-101L53.3,89.9L52.4,106.8z"/>
<path class="st1" d="M83.7,123.5l-4.5,48.2c0,0-1.9,14.8,12.9,0s28.9-26.1,28.9-26.1"/>
<path class="st2" d="M52.9,109.1L4.3,93.3c0,0-5.8-2.4-3.9-7.7c0.4-1.1,1.2-2,3.5-3.6C14.6,74.5,203,6.8,203,6.8s5.3-1.8,8.5-0.6
	c1.6,0.5,2.8,1.8,3.1,3.4c0.3,1.4,0.5,2.8,0.4,4.3c0,1.2-0.2,2.4-0.3,4.2c-1.1,18.5-35.5,156.7-35.5,156.7s-2.1,8.1-9.4,8.4
	c-3.7,0.1-7.2-1.3-9.8-3.8c-14.4-12.4-64.4-46-75.4-53.3c-0.5-0.3-0.8-0.9-0.9-1.5c-0.2-0.8,0.7-1.7,0.7-1.7s86.9-77.3,89.2-85.4
	c0.2-0.6-0.5-0.9-1.4-0.7C166.4,38.8,66.4,102,55.3,109C54.5,109.2,53.7,109.3,52.9,109.1z"/>
</svg>
